<?xml version="1.0" encoding="UTF-8" ?>
<!DOCTYPE svg PUBLIC "-//W3C//DTD SVG 1.1//EN" "http://www.w3.org/Graphics/SVG/1.1/DTD/svg11.dtd">
<svg width="281pt" height="281pt" viewBox="0 0 281 281" version="1.1" xmlns="http://www.w3.org/2000/svg">
<g id="#010101ff">
<path fill="#010101" opacity="1.00" d=" M 0.00 0.00 L 281.00 0.00 L 281.00 281.00 L 0.00 281.00 L 0.00 0.00 M 130.53 1.16 C 112.58 2.75 94.81 7.29 78.69 15.45 C 50.56 29.27 27.43 52.90 14.18 81.29 C 4.83 101.08 0.26 123.12 0.95 144.99 C 1.88 173.35 11.66 201.40 28.77 224.07 C 45.42 246.49 69.00 263.64 95.43 272.65 C 134.39 286.30 179.24 281.11 214.16 259.12 C 241.34 242.29 262.45 215.86 272.68 185.55 C 287.20 144.13 280.27 96.07 254.76 60.35 C 236.07 33.59 207.66 13.79 176.07 5.55 C 161.26 1.57 145.82 0.21 130.53 1.16 Z" />
<path fill="#010101" opacity="1.00" d=" M 33.34 65.07 C 54.69 34.75 89.41 13.44 126.58 10.47 C 124.14 12.71 121.81 15.07 119.22 17.15 C 101.93 31.70 88.15 50.06 77.86 70.12 C 81.74 68.29 85.78 66.83 89.91 65.69 C 95.48 56.24 101.70 47.14 109.07 38.99 C 118.20 28.12 129.49 19.37 140.78 10.87 C 146.13 15.34 151.87 19.32 157.11 23.92 C 168.00 33.38 177.69 44.23 185.55 56.34 C 193.80 68.49 199.58 82.13 204.11 96.05 C 205.35 100.52 206.78 104.97 207.24 109.61 C 204.65 108.32 202.58 106.24 200.27 104.54 C 186.80 94.54 170.60 88.41 153.97 86.47 C 132.29 84.05 109.57 87.41 90.52 98.45 C 84.45 101.55 79.51 106.32 73.74 109.87 C 74.92 102.17 77.15 94.59 80.13 87.39 C 76.42 89.08 72.69 90.74 69.13 92.71 C 63.02 113.13 60.38 134.76 62.87 155.99 C 67.26 198.23 88.01 239.06 121.22 265.87 C 123.01 267.31 125.02 268.69 125.88 270.94 C 95.39 267.58 66.37 253.00 45.33 230.70 C 25.93 210.02 12.62 182.97 10.50 154.52 C 12.20 156.44 14.05 158.22 15.72 160.17 C 30.63 178.10 49.42 192.74 70.30 203.09 C 68.38 199.29 67.64 194.96 65.62 191.24 C 54.03 184.26 42.94 176.29 33.24 166.80 C 24.92 158.73 17.75 149.58 10.88 140.28 C 14.97 135.51 18.50 130.28 22.63 125.53 C 34.77 110.90 49.80 98.80 66.32 89.44 C 104.78 68.20 152.44 64.67 193.61 79.98 C 191.83 76.38 190.24 72.68 188.28 69.16 C 167.45 63.09 145.44 60.34 123.83 62.93 C 91.98 66.05 61.26 79.10 36.75 99.66 C 27.02 107.54 18.85 117.07 10.52 126.34 C 12.12 104.31 20.72 83.07 33.34 65.07 Z" />
<path fill="#010101" opacity="1.00" d=" M 154.66 10.53 C 180.86 12.71 205.96 24.15 225.85 41.19 C 250.76 62.48 267.34 93.37 270.76 126.01 C 269.25 124.91 267.96 123.57 266.81 122.10 C 251.74 103.41 232.28 88.49 210.83 77.81 C 212.64 81.37 213.99 85.13 215.31 88.89 C 215.64 90.37 217.11 90.99 218.25 91.75 C 238.60 103.76 256.20 120.39 269.26 140.08 C 268.66 142.50 266.70 144.34 265.39 146.42 C 248.82 169.75 225.45 188.15 198.84 198.68 C 163.75 213.20 123.16 214.56 87.55 201.05 C 89.29 204.76 91.00 208.48 92.89 212.12 C 122.27 221.15 154.20 221.51 183.73 213.00 C 213.58 204.64 241.39 188.26 261.86 164.83 C 264.97 161.67 267.18 157.67 270.78 155.02 C 267.82 182.93 255.34 209.67 236.10 230.07 C 215.06 252.69 185.79 267.51 155.05 270.78 C 156.12 269.26 157.49 268.00 158.96 266.88 C 177.94 251.71 193.29 232.13 203.78 210.22 C 199.83 211.93 195.80 213.44 191.70 214.74 C 179.56 236.11 162.60 254.80 142.14 268.46 C 141.08 269.60 139.82 269.04 138.78 268.25 C 115.89 253.01 97.22 231.46 85.67 206.49 C 79.03 192.13 74.47 176.83 72.09 161.19 C 74.85 162.94 76.59 165.79 78.87 168.06 C 90.55 180.61 106.12 189.50 122.90 193.08 C 151.45 199.25 182.95 189.25 202.71 167.73 C 204.84 165.49 206.56 162.84 209.11 161.03 C 207.66 172.08 205.13 183.04 201.14 193.46 C 204.84 191.69 208.61 190.02 212.22 188.07 C 224.13 148.41 220.78 104.14 201.65 67.27 C 190.87 44.87 173.91 26.02 154.66 10.53 Z" />
<path fill="#010101" opacity="1.00" d=" M 122.78 95.85 C 142.34 92.56 163.11 94.36 181.14 102.95 C 192.14 108.20 202.16 115.83 209.61 125.52 C 210.38 132.49 210.69 139.57 210.34 146.60 C 208.79 145.15 207.43 143.53 206.12 141.87 C 192.93 125.63 173.53 114.60 152.82 111.67 C 126.75 107.61 99.10 116.83 80.62 135.63 C 77.08 138.87 74.51 143.00 70.93 146.19 C 70.47 139.44 71.13 132.69 71.29 125.95 C 83.94 109.97 102.74 99.25 122.78 95.85 Z" />
<path fill="#010101" opacity="1.00" d=" M 77.61 152.91 C 85.88 140.64 97.84 130.94 111.46 125.19 C 111.22 135.16 115.93 145.21 124.38 150.69 C 134.83 157.92 149.98 157.05 159.47 148.59 C 166.22 142.96 169.73 134.20 169.64 125.50 C 183.38 130.74 195.30 140.71 203.40 152.94 C 195.00 165.19 183.07 174.99 169.20 180.41 C 150.50 188.11 128.60 188.14 110.10 179.80 C 97.03 174.07 85.95 164.41 77.61 152.91 Z" />
</g>
<g id="#f9f9f9ff">
<path fill="#f9f9f9" opacity="1.00" d=" M 130.53 1.16 C 145.82 0.21 161.26 1.57 176.07 5.55 C 207.66 13.79 236.07 33.59 254.76 60.35 C 280.27 96.07 287.20 144.13 272.68 185.55 C 262.45 215.86 241.34 242.29 214.16 259.12 C 179.24 281.11 134.39 286.30 95.43 272.65 C 69.00 263.64 45.42 246.49 28.77 224.07 C 11.66 201.40 1.88 173.35 0.95 144.99 C 0.26 123.12 4.83 101.08 14.18 81.29 C 27.43 52.90 50.56 29.27 78.69 15.45 C 94.81 7.29 112.58 2.75 130.53 1.16 M 33.34 65.07 C 20.72 83.07 12.12 104.31 10.52 126.34 C 18.85 117.07 27.02 107.54 36.75 99.66 C 61.26 79.10 91.98 66.05 123.83 62.93 C 145.44 60.34 167.45 63.09 188.28 69.16 C 190.24 72.68 191.83 76.38 193.61 79.98 C 152.44 64.67 104.78 68.20 66.32 89.44 C 49.80 98.80 34.77 110.90 22.63 125.53 C 18.50 130.28 14.97 135.51 10.88 140.28 C 17.75 149.58 24.92 158.73 33.24 166.80 C 42.94 176.29 54.03 184.26 65.62 191.24 C 67.64 194.96 68.38 199.29 70.30 203.09 C 49.42 192.74 30.63 178.10 15.72 160.17 C 14.05 158.22 12.20 156.44 10.50 154.52 C 12.62 182.97 25.93 210.02 45.33 230.70 C 66.37 253.00 95.39 267.58 125.88 270.94 C 125.02 268.69 123.01 267.31 121.22 265.87 C 88.01 239.06 67.26 198.23 62.87 155.99 C 60.38 134.76 63.02 113.13 69.13 92.71 C 72.69 90.74 76.42 89.08 80.13 87.39 C 77.15 94.59 74.92 102.17 73.74 109.87 C 79.51 106.32 84.45 101.55 90.52 98.45 C 109.57 87.41 132.29 84.05 153.97 86.47 C 170.60 88.41 186.80 94.54 200.27 104.54 C 202.58 106.24 204.65 108.32 207.24 109.61 C 206.78 104.97 205.35 100.52 204.11 96.05 C 199.58 82.13 193.80 68.49 185.55 56.34 C 177.69 44.23 168.00 33.38 157.11 23.92 C 151.87 19.32 146.13 15.34 140.78 10.87 C 129.49 19.37 118.20 28.12 109.07 38.99 C 101.70 47.14 95.48 56.24 89.91 65.69 C 85.78 66.83 81.74 68.29 77.86 70.12 C 88.15 50.06 101.93 31.70 119.22 17.15 C 121.81 15.07 124.14 12.71 126.58 10.47 C 89.41 13.44 54.69 34.75 33.34 65.07 M 154.66 10.53 C 173.91 26.02 190.87 44.87 201.65 67.27 C 220.78 104.14 224.13 148.41 212.22 188.07 C 208.61 190.02 204.84 191.69 201.14 193.46 C 205.13 183.04 207.66 172.08 209.11 161.03 C 206.56 162.84 204.84 165.49 202.71 167.73 C 182.95 189.25 151.45 199.25 122.90 193.08 C 106.12 189.50 90.55 180.61 78.87 168.06 C 76.59 165.79 74.85 162.94 72.09 161.19 C 74.47 176.83 79.03 192.13 85.67 206.49 C 97.22 231.46 115.89 253.01 138.78 268.25 C 139.82 269.04 141.08 269.60 142.14 268.46 C 162.60 254.80 179.56 236.11 191.70 214.74 C 195.80 213.44 199.83 211.93 203.78 210.22 C 193.29 232.13 177.94 251.71 158.96 266.88 C 157.49 268.00 156.12 269.26 155.05 270.78 C 185.79 267.51 215.06 252.69 236.10 230.07 C 255.34 209.67 267.82 182.93 270.78 155.02 C 267.18 157.67 264.97 161.67 261.86 164.83 C 241.39 188.26 213.58 204.64 183.73 213.00 C 154.20 221.51 122.27 221.15 92.89 212.12 C 91.00 208.48 89.29 204.76 87.55 201.05 C 123.16 214.56 163.75 213.20 198.84 198.68 C 225.45 188.15 248.82 169.75 265.39 146.42 C 266.70 144.34 268.66 142.50 269.26 140.08 C 256.20 120.39 238.60 103.76 218.25 91.75 C 217.11 90.99 215.64 90.37 215.31 88.89 C 213.99 85.13 212.64 81.37 210.83 77.81 C 232.28 88.49 251.74 103.41 266.81 122.10 C 267.96 123.57 269.25 124.91 270.76 126.01 C 267.34 93.37 250.76 62.48 225.85 41.19 C 205.96 24.15 180.86 12.71 154.66 10.53 M 122.78 95.85 C 102.74 99.25 83.94 109.97 71.29 125.95 C 71.13 132.69 70.47 139.44 70.93 146.19 C 74.51 143.00 77.08 138.87 80.62 135.63 C 99.10 116.83 126.75 107.61 152.82 111.67 C 173.53 114.60 192.93 125.63 206.12 141.87 C 207.43 143.53 208.79 145.15 210.34 146.60 C 210.69 139.57 210.38 132.49 209.61 125.52 C 202.16 115.83 192.14 108.20 181.14 102.95 C 163.11 94.36 142.34 92.56 122.78 95.85 M 77.61 152.91 C 85.95 164.41 97.03 174.07 110.10 179.80 C 128.60 188.14 150.50 188.11 169.20 180.41 C 183.07 174.99 195.00 165.19 203.40 152.94 C 195.30 140.71 183.38 130.74 169.64 125.50 C 169.73 134.20 166.22 142.96 159.47 148.59 C 149.98 157.05 134.83 157.92 124.38 150.69 C 115.93 145.21 111.22 135.16 111.46 125.19 C 97.84 130.94 85.88 140.64 77.61 152.91 Z" />
</g>
</svg>
